# xmcd
#
# Track frame offsets: 
#        150
#        14540
#        25682
#        39080
#        58960
#        70705
#        90815
#        122187
#        141895
#        159945
#        174082
#        190600
#        205205
#
# Disc length: 2929 seconds
#
# Revision: 0
# Processed by: cddbd v1.5PL3 Copyright (c) Steve Scherf et al.
# Submitted via: ExactAudioCopy v0.95a2
#
DISCID=9b0b6f0d
DTITLE=Troy Turner - Blues on my Back
DYEAR=1999
DGENRE=Blues
TTITLE0=World Without Fear
TTITLE1=Baby Let's Play House
TTITLE2=Blues on my Back
TTITLE3=Lonely Cafe
TTITLE4=Later Than You Think
TTITLE5=Hide Away
TTITLE6=Going Back to Louisiana
TTITLE7=If This Is Love
TTITLE8=Black Cat Bone
TTITLE9=Protection
TTITLE10=It's Harder Now
TTITLE11=No Hard Feelings
TTITLE12=Mojo Boogie
EXTD=
EXTT0=
EXTT1=
EXTT2=
EXTT3=
EXTT4=
EXTT5=
EXTT6=
EXTT7=
EXTT8=
EXTT9=
EXTT10=
EXTT11=
EXTT12=
PLAYORDER=
